<?xml version="1.0" encoding="utf-8"?>
<svg version="1.1" id="Capa_1" xmlns="http://www.w3.org/2000/svg" x="0px" y="0px"
     viewBox="0 0 34.3 61.1" style="enable-background:new 0 0 34.3 61.1;" xml:space="preserve">
<path d="M14.1,34v12.3H7.2c-1.7,0-3.1,1.4-3.1,3.1s1.4,3.1,3.1,3.1h6.9V58c0,1.7,1.4,3.1,3.1,3.1c1.7,0,3.1-1.4,3.1-3.1v-5.5h6.9
	c1.7,0,3.1-1.4,3.1-3.1s-1.4-3.1-3.1-3.1h-6.9V34c8-1.5,14.1-8.5,14.1-16.9C34.3,7.7,26.6,0,17.2,0S0,7.7,0,17.2
	C0,25.6,6.1,32.6,14.1,34z M17.2,6.2c6.1,0,11,4.9,11,11s-4.9,11-11,11s-11-4.9-11-11S11.1,6.2,17.2,6.2z"/>
</svg>
