<svg width="367.385" height="322.942" viewBox="0 0 97.204 85.445" xmlns="http://www.w3.org/2000/svg"><g transform="translate(-60.711 -33.962)"><path d="M68.706 43.082c.4.735 4.626 1.916 4.626 1.916l5.312-3.708 9.622 6.38-.705-5.439 2.776 1.13 8.119-1.27 1.904 12.462-1.136 14.767.601 12.628.869 8.853-.902 11.225-5.245 6.849-1.47-2.272 1.403-1.904-1.737-10.925-1.637-3.642-3.575-2.238-.668-11.693-4.21-10.991-1.87-3.642-7.818.234c-1.537-3.24-3.092-5.023-4.544-14.7zM101.03 118.73l-1.336-4.143 2.004-5.746 7.6-.919.017 11.342z" fill="#3c3c3c" stroke="#000" stroke-width=".265"/><ellipse transform="rotate(22)" cx="118.68" cy="42.777" rx="3.809" ry="2.426" fill="none" stroke="#e1e1e1" stroke-width=".45"/><g transform="matrix(-1 0 0 1 218.63 0)"><path d="M109.31 40.421l-18.976 2.94-9.622-4.01h-6.681l-4.811-5.077-.802 12.829c.71 4.9 1.72 9.8 4.543 14.7L60.934 86.525c13.74-1.745 16.79 7.601 29.133 15.636l10.958 16.57 8.286.535m0-78.844l18.976 2.94 9.621-4.01h6.682l4.811-5.077.47 7.519.332 5.31c-.711 4.9-1.72 9.8-4.544 14.7l12.027 24.722c-13.74-1.745-16.79 7.601-29.133 15.636l-10.958 16.57-8.285.535" fill="#f0f0f0" stroke="#000" stroke-width=".265"/><path d="M68.706 43.082c.4.735 4.626 1.916 4.626 1.916l5.312-3.708 9.622 6.38-.705-5.439 2.776 1.13 8.119-1.27 1.904 12.462-1.136 14.767.601 12.628.869 8.853-.902 11.225-5.245 6.849-1.47-2.272 1.403-1.904-1.737-10.925-1.637-3.642-3.575-2.238-.668-11.693-4.21-10.991-1.87-3.642-7.818.234c-1.537-3.24-3.092-5.023-4.544-14.7z" fill="#3c3c3c" stroke="#000" stroke-width=".265"/><ellipse transform="rotate(22)" cx="118.68" cy="42.777" rx="3.809" ry="2.426" fill="none" stroke="#e1e1e1" stroke-width=".45"/><path d="M117.57 118.73l1.336-4.143-2.004-5.746-7.6-.919-.017 11.342zm-16.537 0l-1.336-4.143 2.004-5.746 7.6-.919.017 11.342z" fill="#3c3c3c" stroke="#000" stroke-width=".265"/></g></g><g stroke="#000" stroke-width=".265"><path d="M7.995 9.12c.4.735 4.626 1.916 4.626 1.916l5.312-3.708 9.622 6.38-.705-5.439 2.776 1.13 8.119-1.27 1.904 12.462-1.136 14.767.601 12.628.869 8.853-.902 11.225-5.245 6.849-1.47-2.272 1.403-1.904-1.737-10.925-1.637-3.642-3.575-2.238-.668-11.693-4.21-10.991-1.87-3.642-7.818.234c-1.537-3.24-3.092-5.023-4.544-14.7zM89.213 9.12c-.4.735-4.626 1.916-4.626 1.916l-5.312-3.708-9.622 6.38.705-5.439-2.776 1.13-8.119-1.27-1.904 12.462 1.136 14.767-.601 12.628-.869 8.853.902 11.225 5.245 6.849 1.47-2.272-1.403-1.904 1.737-10.925 1.637-3.642 3.575-2.238.668-11.693 4.21-10.991 1.87-3.642 7.818.234c1.537-3.24 3.092-5.023 4.544-14.7zM56.889 84.768l1.336-4.143-3.729-5.699-5.876-.966-.016 11.342zm-16.571 0l-1.336-4.143 3.729-5.699 5.876-.966.016 11.342z"/></g><path d="M27.199 47.633l6.93 1.231 4.5 5.114-6.6-.992z" fill="#6e6e6e"/><path d="M27.199 47.633l6.946 1.637 4.484 4.708-6.813-1.638z" fill="#fff" fill-opacity=".392"/><path d="M69.919 47.321l-6.93 1.231-4.5 5.114 6.6-.992z" fill="#6e6e6e"/><path d="M69.919 47.321l-6.946 1.637-4.485 4.708 6.814-1.638z" fill="#fff" fill-opacity=".392"/></svg>